<svg width="2555" height="800" viewBox="0 0 2555 800" fill="none" xmlns="http://www.w3.org/2000/svg">
<rect width="800" height="800" rx="400" fill="url(#paint0_linear_144_4596)"/>
<path d="M356 165.6H249.334L237.527 217.61L184.193 217.61L160.579 321.63H213.913L190.3 425.65C164.217 540.547 238.585 633.69 356.406 633.69H463.072C521.983 633.69 580.311 587.119 593.353 529.67V529.67L373.352 529.67C318.124 529.67 283.264 486.01 295.49 432.151L320.58 321.63H373.913L355.096 404.521C345.926 444.915 372.071 477.66 413.493 477.66H605.16L628.773 373.64L493.773 373.64C479.966 373.64 471.251 362.725 474.307 349.26L480.579 321.63L640.58 321.63V321.63C653.622 264.181 616.437 217.61 557.527 217.61L504.193 217.61L516 165.6H409.333L397.526 217.61L344.194 217.61L356 165.6Z" fill="#0B4CAD"/>
<path d="M356 165.6H249.334L237.527 217.61L184.193 217.61L160.579 321.63H213.913L190.3 425.65C164.217 540.547 238.585 633.69 356.406 633.69H463.072C521.983 633.69 580.311 587.119 593.353 529.67V529.67L373.352 529.67C318.124 529.67 283.264 486.01 295.49 432.151L320.58 321.63H373.913L355.096 404.521C345.926 444.915 372.071 477.66 413.493 477.66H605.16L628.773 373.64L493.773 373.64C479.966 373.64 471.251 362.725 474.307 349.26L480.579 321.63L640.58 321.63V321.63C653.622 264.181 616.437 217.61 557.527 217.61L504.193 217.61L516 165.6H409.333L397.526 217.61L344.194 217.61L356 165.6Z" fill="url(#paint1_linear_144_4596)"/>
<path d="M1018.32 748.765V177.633H840V51.2353H1340.05V177.633H1164.56V748.765H1018.32Z" fill="#3062D4"/>
<path d="M1299.26 748.765V51.2353H1340.4L1788.93 493.109L1728.55 558.7V51.2353H1874.79V748.765L1390.77 308.036L1445.5 237.555V748.765H1299.26Z" fill="#3062D4"/>
<path d="M2224.06 760C2173.74 760 2126.88 750.949 2083.48 732.848C2040.08 714.746 2002.02 689.467 1969.32 657.009C1936.61 624.551 1911.13 586.476 1892.89 542.783C1874.65 499.09 1865.53 451.339 1865.53 399.532C1865.53 347.724 1874.34 299.974 1891.95 256.281C1909.56 211.964 1934.41 173.888 1966.49 142.055C1998.56 109.597 2035.99 84.6294 2078.76 67.1521C2122.16 49.0507 2169.34 40 2220.29 40C2271.24 40 2316.84 48.4265 2357.09 65.2796C2397.98 82.1326 2432.57 104.603 2460.88 132.692C2489.18 160.78 2509.31 191.99 2521.26 226.32L2392 288.114C2380.05 254.408 2358.98 226.632 2328.79 204.785C2299.23 182.315 2263.06 171.079 2220.29 171.079C2178.77 171.079 2142.29 180.754 2110.84 200.104C2079.39 219.454 2054.86 246.294 2037.25 280.624C2020.27 314.33 2011.77 353.966 2011.77 399.532C2011.77 445.098 2020.89 485.045 2039.14 519.376C2057.38 553.706 2082.22 580.546 2113.67 599.896C2145.75 619.246 2182.55 628.921 2224.06 628.921C2256.14 628.921 2286.02 622.991 2313.69 611.131C2342 598.648 2364.64 580.858 2381.63 557.763C2399.24 534.668 2408.04 506.892 2408.04 474.434V416.385L2475.03 472.562H2220.29V350.845H2554.29V424.811C2554.29 481.612 2544.85 531.235 2525.98 573.68C2507.11 615.501 2481.64 650.455 2449.56 678.544C2418.11 706.008 2382.57 726.606 2342.94 740.338C2303.94 753.446 2264.32 760 2224.06 760Z" fill="#3062D4"/>
<defs>
<linearGradient id="paint0_linear_144_4596" x1="800" y1="800" x2="400" y2="5.08378e-05" gradientUnits="userSpaceOnUse">
<stop offset="0.507349" stop-color="#0B4CAD"/>
<stop offset="1" stop-color="#5293F4"/>
</linearGradient>
<linearGradient id="paint1_linear_144_4596" x1="329.739" y1="633.69" x2="329.739" y2="165.6" gradientUnits="userSpaceOnUse">
<stop stop-color="#DAEBFB"/>
<stop offset="1" stop-color="white"/>
</linearGradient>
</defs>
</svg>
