<svg width="800" height="800" viewBox="0 0 800 800" fill="none" xmlns="http://www.w3.org/2000/svg">
<rect width="800" height="800" rx="400" fill="url(#paint0_linear_144_4600)"/>
<path d="M356 165.6H249.334L237.527 217.61L184.193 217.61L160.579 321.63H213.913L190.3 425.65C164.217 540.547 238.585 633.69 356.406 633.69H463.072C521.983 633.69 580.311 587.119 593.353 529.67V529.67L373.352 529.67C318.124 529.67 283.264 486.01 295.49 432.151L320.58 321.63H373.913L355.096 404.521C345.926 444.915 372.071 477.66 413.493 477.66H605.16L628.773 373.64L493.773 373.64C479.966 373.64 471.251 362.725 474.307 349.26L480.579 321.63L640.58 321.63V321.63C653.622 264.181 616.437 217.61 557.527 217.61L504.193 217.61L516 165.6H409.333L397.526 217.61L344.194 217.61L356 165.6Z" fill="#0B4CAD"/>
<path d="M356 165.6H249.334L237.527 217.61L184.193 217.61L160.579 321.63H213.913L190.3 425.65C164.217 540.547 238.585 633.69 356.406 633.69H463.072C521.983 633.69 580.311 587.119 593.353 529.67V529.67L373.352 529.67C318.124 529.67 283.264 486.01 295.49 432.151L320.58 321.63H373.913L355.096 404.521C345.926 444.915 372.071 477.66 413.493 477.66H605.16L628.773 373.64L493.773 373.64C479.966 373.64 471.251 362.725 474.307 349.26L480.579 321.63L640.58 321.63V321.63C653.622 264.181 616.437 217.61 557.527 217.61L504.193 217.61L516 165.6H409.333L397.526 217.61L344.194 217.61L356 165.6Z" fill="url(#paint1_linear_144_4600)"/>
<defs>
<linearGradient id="paint0_linear_144_4600" x1="800" y1="800" x2="400" y2="5.08378e-05" gradientUnits="userSpaceOnUse">
<stop offset="0.507349" stop-color="#0B4CAD"/>
<stop offset="1" stop-color="#5293F4"/>
</linearGradient>
<linearGradient id="paint1_linear_144_4600" x1="329.739" y1="633.69" x2="329.739" y2="165.6" gradientUnits="userSpaceOnUse">
<stop stop-color="#DAEBFB"/>
<stop offset="1" stop-color="white"/>
</linearGradient>
</defs>
</svg>
